STARTFONT 2.3
FONT -FontForge-Courgette-Book-R-Normal--12-120-72-72-P-62-ISO10646-1
SIZE 12 72 72  2
FONTBOUNDINGBOX 16 16 -2 -4
COMMENT "Generated by fontforge, http://fontforge.sourceforge.net"
COMMENT "Copyright (c) 2012, Sorkin Type Co (www.sorkintype.com) with Reserved Font Name "Courgette"."
STARTPROPERTIES 41
FOUNDRY "FontForge"
FAMILY_NAME "Courgette"
WEIGHT_NAME "Book"
SLANT "R"
SETWIDTH_NAME "Normal"
ADD_STYLE_NAME ""
PIXEL_SIZE 12
POINT_SIZE 120
RESOLUTION_X 72
RESOLUTION_Y 72
SPACING "P"
AVERAGE_WIDTH 62
CHARSET_REGISTRY "ISO10646"
CHARSET_ENCODING "1"
FONTNAME_REGISTRY ""
CHARSET_COLLECTIONS "ISO8859-2 ISO8859-9 ISO8859-4 ISO10646-1"
BITS_PER_PIXEL 2
FONT_NAME "Courgette-Regular"
FACE_NAME "Courgette Regular"
COPYRIGHT "Copyright (c) 2012, Sorkin Type Co (www.sorkintype.com) with Reserved Font Name "Courgette"."
FONT_VERSION "1.002"
FONT_ASCENT 10
FONT_DESCENT 2
UNDERLINE_POSITION -1
UNDERLINE_THICKNESS 1
X_HEIGHT 5
CAP_HEIGHT 8
DEFAULT_CHAR 1
RAW_ASCENT 799
RAW_DESCENT 200
NORM_SPACE 4
RELATIVE_WEIGHT 40
RELATIVE_SETWIDTH 50
SUPERSCRIPT_X 0
SUPERSCRIPT_Y 5
SUPERSCRIPT_SIZE 7
SUBSCRIPT_X 0
SUBSCRIPT_Y 1
SUBSCRIPT_SIZE 7
AVG_LOWERCASE_WIDTH 60
AVG_UPPERCASE_WIDTH 70
ENDPROPERTIES
CHARS 407
STARTCHAR .null.dup1
ENCODING 0
SWIDTH 0 0
DWIDTH 0 0
BBX 1 1 0 0
BITMAP
00
ENDCHAR
STARTCHAR uni0001
ENCODING 1
SWIDTH 0 0
DWIDTH 0 0
BBX 1 1 0 0
BITMAP
00
ENDCHAR
STARTCHAR uni0002
ENCODING 2
SWIDTH 0 0
DWIDTH 0 0
BBX 1 1 0 0
BITMAP
00
ENDCHAR
STARTCHAR uni0003
ENCODING 3
SWIDTH 0 0
DWIDTH 0 0
BBX 1 1 0 0
BITMAP
00
ENDCHAR
STARTCHAR uni0004
ENCODING 4
SWIDTH 0 0
DWIDTH 0 0
BBX 1 1 0 0
BITMAP
00
ENDCHAR
STARTCHAR uni0005
ENCODING 5
SWIDTH 0 0
DWIDTH 0 0
BBX 1 1 0 0
BITMAP
00
ENDCHAR
STARTCHAR uni0006
ENCODING 6
SWIDTH 0 0
DWIDTH 0 0
BBX 1 1 0 0
BITMAP
00
ENDCHAR
STARTCHAR uni0007
ENCODING 7
SWIDTH 0 0
DWIDTH 0 0
BBX 1 1 0 0
BITMAP
00
ENDCHAR
STARTCHAR uni0008
ENCODING 8
SWIDTH 0 0
DWIDTH 0 0
BBX 1 1 0 0
BITMAP
00
ENDCHAR
STARTCHAR uni0009
ENCODING 9
SWIDTH 0 0
DWIDTH 0 0
BBX 1 1 0 0
BITMAP
00
ENDCHAR
STARTCHAR nonmarkingreturn
ENCODING 13
SWIDTH 0 0
DWIDTH 0 0
BBX 1 1 0 0
BITMAP
00
ENDCHAR
STARTCHAR uni0015
ENCODING 21
SWIDTH 0 0
DWIDTH 0 0
BBX 1 1 0 0
BITMAP
00
ENDCHAR
STARTCHAR uni0016
ENCODING 22
SWIDTH 0 0
DWIDTH 0 0
BBX 1 1 0 0
BITMAP
00
ENDCHAR
STARTCHAR uni0017
ENCODING 23
SWIDTH 0 0
DWIDTH 0 0
BBX 1 1 0 0
BITMAP
00
ENDCHAR
STARTCHAR uni0018
ENCODING 24
SWIDTH 0 0
DWIDTH 0 0
BBX 1 1 0 0
BITMAP
00
ENDCHAR
STARTCHAR uni0019
ENCODING 25
SWIDTH 0 0
DWIDTH 0 0
BBX 1 1 0 0
BITMAP
00
ENDCHAR
STARTCHAR space
ENCODING 32
SWIDTH 307 0
DWIDTH 4 0
BBX 1 1 0 0
BITMAP
00
ENDCHAR
STARTCHAR exclam
ENCODING 33
SWIDTH 417 0
DWIDTH 5 0
BBX 5 9 1 0
BITMAP
0740
0A00
1D00
2800
3400
3000
2000
5000
E000
ENDCHAR
STARTCHAR quotedbl
ENCODING 34
SWIDTH 437 0
DWIDTH 5 0
BBX 5 3 1 7
BITMAP
29C0
7240
5200
ENDCHAR
STARTCHAR numbersign
ENCODING 35
SWIDTH 725 0
DWIDTH 9 0
BBX 8 9 1 0
BITMAP
018C
0368
0734
6EF9
0C90
AEE4
2580
3240
2200
ENDCHAR
STARTCHAR dollar
ENCODING 36
SWIDTH 545 0
DWIDTH 7 0
BBX 7 13 0 -2
BITMAP
0004
0024
02B4
0A0C
0D1C
1D78
0E10
0740
1280
7180
2A00
2400
1000
ENDCHAR
STARTCHAR percent
ENCODING 37
SWIDTH 876 0
DWIDTH 11 0
BBX 9 9 1 0
BITMAP
2A0200
A70900
D62800
88A000
01DA00
073680
0D7280
246340
902900
ENDCHAR
STARTCHAR ampersand
ENCODING 38
SWIDTH 563 0
DWIDTH 7 0
BBX 7 9 0 0
BITMAP
02E4
0E18
2828
2860
1E40
2D00
71E4
A0C0
2A40
ENDCHAR
STARTCHAR quotesingle
ENCODING 39
SWIDTH 231 0
DWIDTH 3 0
BBX 3 3 1 7
BITMAP
28
70
50
ENDCHAR
STARTCHAR parenleft
ENCODING 40
SWIDTH 478 0
DWIDTH 6 0
BBX 6 14 1 -3
BITMAP
0010
0090
0240
0A00
1C00
2400
7000
7000
A000
A000
A000
7000
3400
1800
ENDCHAR
STARTCHAR parenright
ENCODING 41
SWIDTH 478 0
DWIDTH 6 0
BBX 6 14 -1 -3
BITMAP
0100
0180
00D0
00A0
00A0
00A0
00A0
00D0
01C0
0280
0700
0900
2400
9000
ENDCHAR
STARTCHAR asterisk
ENCODING 42
SWIDTH 518 0
DWIDTH 6 0
BBX 5 5 1 4
BITMAP
0700
2940
2E80
2900
5200
ENDCHAR
STARTCHAR plus
ENCODING 43
SWIDTH 617 0
DWIDTH 7 0
BBX 6 6 1 1
BITMAP
0900
0900
0900
AE90
0900
0800
ENDCHAR
STARTCHAR comma
ENCODING 44
SWIDTH 312 0
DWIDTH 4 0
BBX 3 4 0 -2
BITMAP
10
74
70
90
ENDCHAR
STARTCHAR hyphen
ENCODING 45
SWIDTH 452 0
DWIDTH 5 0
BBX 4 1 1 3
BITMAP
A9
ENDCHAR
STARTCHAR period
ENCODING 46
SWIDTH 270 0
DWIDTH 3 0
BBX 2 2 0 0
BITMAP
B0
60
ENDCHAR
STARTCHAR slash
ENCODING 47
SWIDTH 405 0
DWIDTH 5 0
BBX 8 13 -1 -2
BITMAP
0001
000A
000C
0024
0060
00D0
0180
0300
0A00
0C00
2400
6000
9000
ENDCHAR
STARTCHAR zero
ENCODING 48
SWIDTH 621 0
DWIDTH 7 0
BBX 8 9 0 0
BITMAP
00A8
0749
0E09
1C0D
281C
3428
7074
30D0
2A40
ENDCHAR
STARTCHAR one
ENCODING 49
SWIDTH 405 0
DWIDTH 5 0
BBX 4 9 1 0
BITMAP
0A
7E
0A
0D
18
24
70
90
80
ENDCHAR
STARTCHAR two
ENCODING 50
SWIDTH 524 0
DWIDTH 6 0
BBX 7 9 0 0
BITMAP
06A0
0D24
1C34
08B0
01D0
0740
1D00
7400
AA90
ENDCHAR
STARTCHAR three
ENCODING 51
SWIDTH 537 0
DWIDTH 6 0
BBX 7 9 0 0
BITMAP
06A0
0D28
1C28
0870
02D0
0680
10C0
6280
2A00
ENDCHAR
STARTCHAR four
ENCODING 52
SWIDTH 529 0
DWIDTH 6 0
BBX 5 9 1 0
BITMAP
1800
2800
3480
A1C0
D280
AB80
0A00
0C00
1400
ENDCHAR
STARTCHAR five
ENCODING 53
SWIDTH 540 0
DWIDTH 6 0
BBX 8 9 0 0
BITMAP
03AD
0614
0D00
1ED0
14B0
00A0
60E0
A1C0
2A00
ENDCHAR
STARTCHAR six
ENCODING 54
SWIDTH 554 0
DWIDTH 7 0
BBX 6 9 1 0
BITMAP
0690
1C70
34D0
AA40
F1C0
D1C0
C280
C340
6900
ENDCHAR
STARTCHAR seven
ENCODING 55
SWIDTH 473 0
DWIDTH 6 0
BBX 6 9 1 0
BITMAP
6A90
01C0
0340
0900
1C00
3400
7000
A000
5000
ENDCHAR
STARTCHAR eight
ENCODING 56
SWIDTH 524 0
DWIDTH 6 0
BBX 7 9 0 0
BITMAP
02A0
0928
0C28
0D70
0B90
1B80
71C0
7080
2A40
ENDCHAR
STARTCHAR nine
ENCODING 57
SWIDTH 554 0
DWIDTH 7 0
BBX 7 9 0 0
BITMAP
02A0
0D28
1C28
2834
28B4
0AB0
0090
7180
7A00
ENDCHAR
STARTCHAR colon
ENCODING 58
SWIDTH 312 0
DWIDTH 4 0
BBX 3 6 0 0
BITMAP
2C
18
00
00
74
60
ENDCHAR
STARTCHAR semicolon
ENCODING 59
SWIDTH 312 0
DWIDTH 4 0
BBX 3 7 0 -2
BITMAP
1C
18
00
10
74
70
90
ENDCHAR
STARTCHAR less
ENCODING 60
SWIDTH 637 0
DWIDTH 8 0
BBX 6 6 1 1
BITMAP
00A0
0640
7400
B400
0A40
00A0
ENDCHAR
STARTCHAR equal
ENCODING 61
SWIDTH 617 0
DWIDTH 7 0
BBX 6 3 1 3
BITMAP
AAA0
0000
AA90
ENDCHAR
STARTCHAR greater
ENCODING 62
SWIDTH 606 0
DWIDTH 7 0
BBX 6 6 1 1
BITMAP
A000
1D00
02D0
0290
2900
9000
ENDCHAR
STARTCHAR question
ENCODING 63
SWIDTH 516 0
DWIDTH 6 0
BBX 6 9 1 0
BITMAP
0A80
2890
28D0
0780
1D00
3400
1000
A000
E000
ENDCHAR
STARTCHAR at
ENCODING 64
SWIDTH 905 0
DWIDTH 11 0
BBX 11 10 0 -2
BITMAP
006A80
064070
082A64
24D718
328618
624D24
625DA0
719A40
280000
06A400
ENDCHAR
STARTCHAR A
ENCODING 65
SWIDTH 615 0
DWIDTH 7 0
BBX 9 9 -1 0
BITMAP
000680
002640
009700
018A00
07FF40
0A1C00
0C1800
242800
A01D00
ENDCHAR
STARTCHAR B
ENCODING 66
SWIDTH 551 0
DWIDTH 7 0
BBX 7 9 0 0
BITMAP
1AA4
190C
0E1C
1C74
3FD0
30A0
60A0
61D0
2A40
ENDCHAR
STARTCHAR C
ENCODING 67
SWIDTH 533 0
DWIDTH 6 0
BBX 8 9 0 0
BITMAP
01A8
0749
0D1C
2838
3400
7000
7000
7450
2E80
ENDCHAR
STARTCHAR D
ENCODING 68
SWIDTH 630 0
DWIDTH 8 0
BBX 8 9 0 0
BITMAP
1AA4
150D
0B0A
0D0A
2C0E
381C
7074
71D0
2A00
ENDCHAR
STARTCHAR E
ENCODING 69
SWIDTH 509 0
DWIDTH 6 0
BBX 7 9 0 0
BITMAP
02E8
0A0C
1C28
2860
1E40
2D00
7400
7080
2A40
ENDCHAR
STARTCHAR F
ENCODING 70
SWIDTH 518 0
DWIDTH 6 0
BBX 8 9 0 0
BITMAP
2EE9
6280
0340
0700
1FA0
0D00
1C00
3400
6000
ENDCHAR
STARTCHAR G
ENCODING 71
SWIDTH 598 0
DWIDTH 7 0
BBX 8 9 0 0
BITMAP
01A8
0749
0D1C
2838
3400
70F8
7060
7080
2E40
ENDCHAR
STARTCHAR H
ENCODING 72
SWIDTH 668 0
DWIDTH 8 0
BBX 10 9 -1 0
BITMAP
0B8090
01C0D0
0281C0
038280
0BAB80
0A0700
0D0900
280D00
600E00
ENDCHAR
STARTCHAR I
ENCODING 73
SWIDTH 327 0
DWIDTH 4 0
BBX 4 9 0 0
BITMAP
2E
07
07
0A
0D
1C
28
70
90
ENDCHAR
STARTCHAR J
ENCODING 74
SWIDTH 393 0
DWIDTH 5 0
BBX 7 12 -2 -3
BITMAP
01F8
075C
002C
0038
0074
00B0
00D0
01C0
0340
0A00
1C00
A000
ENDCHAR
STARTCHAR K
ENCODING 75
SWIDTH 616 0
DWIDTH 7 0
BBX 9 9 -1 0
BITMAP
0B4280
028280
028740
034D00
076400
0AD000
0DB000
283800
601E00
ENDCHAR
STARTCHAR L
ENCODING 76
SWIDTH 517 0
DWIDTH 6 0
BBX 7 9 0 0
BITMAP
01A4
0358
0A28
0DB0
1C50
3800
7000
A540
EA90
ENDCHAR
STARTCHAR M
ENCODING 77
SWIDTH 931 0
DWIDTH 11 0
BBX 12 9 -1 0
BITMAP
001A0B
006A2B
00DD6A
025C9D
03299C
093628
1C3A34
343C34
903429
ENDCHAR
STARTCHAR N
ENCODING 78
SWIDTH 708 0
DWIDTH 9 0
BBX 10 9 0 0
BITMAP
01C1C0
07C1D0
0DC1C0
19C280
25C300
30D600
60E800
907800
902400
ENDCHAR
STARTCHAR O
ENCODING 79
SWIDTH 655 0
DWIDTH 8 0
BBX 8 9 0 0
BITMAP
00AD
0747
0E07
2C07
340A
341D
7028
30A0
1A80
ENDCHAR
STARTCHAR P
ENCODING 80
SWIDTH 553 0
DWIDTH 7 0
BBX 9 9 -1 0
BITMAP
02E900
0A0340
018340
028700
075D00
0BE400
0D0000
280000
600000
ENDCHAR
STARTCHAR Q
ENCODING 81
SWIDTH 655 0
DWIDTH 8 0
BBX 8 11 1 -2
BITMAP
06A4
1D18
341C
A028
D034
D070
E1D0
5740
6E00
02D0
0069
ENDCHAR
STARTCHAR R
ENCODING 82
SWIDTH 623 0
DWIDTH 7 0
BBX 9 9 -1 0
BITMAP
02E900
064340
01C340
038700
076D00
0AE000
0D7000
282800
601E00
ENDCHAR
STARTCHAR S
ENCODING 83
SWIDTH 474 0
DWIDTH 6 0
BBX 7 9 0 0
BITMAP
06A0
0D24
2828
28B0
1D00
0B00
1340
A340
7900
ENDCHAR
STARTCHAR T
ENCODING 84
SWIDTH 471 0
DWIDTH 6 0
BBX 7 9 1 0
BITMAP
BBA4
8700
0A00
0D00
1C00
2800
3400
7000
9000
ENDCHAR
STARTCHAR U
ENCODING 85
SWIDTH 624 0
DWIDTH 8 0
BBX 9 9 0 0
BITMAP
0B0340
070700
0E0E00
1C1C00
283800
34B800
A1B400
A27000
783800
ENDCHAR
STARTCHAR V
ENCODING 86
SWIDTH 587 0
DWIDTH 7 0
BBX 8 9 1 0
BITMAP
B90D
0D0A
1C0D
3828
70B0
A2C0
D600
E800
A000
ENDCHAR
STARTCHAR W
ENCODING 87
SWIDTH 941 0
DWIDTH 11 0
BBX 11 9 1 0
BITMAP
A80028
0D042C
2C2C2C
34B428
72F034
A6A070
D890D0
E49240
A07900
ENDCHAR
STARTCHAR X
ENCODING 88
SWIDTH 552 0
DWIDTH 7 0
BBX 10 9 -1 0
BITMAP
00C1D0
01C740
01DC00
01F400
01D000
02D000
06A000
1C7400
602D00
ENDCHAR
STARTCHAR Y
ENCODING 89
SWIDTH 580 0
DWIDTH 7 0
BBX 8 12 0 -3
BITMAP
0B03
0707
0E0D
1C2C
2838
74B4
A1B0
A2A0
79C0
0240
0A00
2400
ENDCHAR
STARTCHAR Z
ENCODING 90
SWIDTH 501 0
DWIDTH 6 0
BBX 7 9 0 0
BITMAP
1AAC
0038
00F0
0280
0A00
2800
6000
EA90
E060
ENDCHAR
STARTCHAR bracketleft
ENCODING 91
SWIDTH 396 0
DWIDTH 5 0
BBX 6 13 0 -2
BITMAP
00A0
01C0
0280
0340
0700
0A00
0D00
1C00
2800
3400
7000
A000
A400
ENDCHAR
STARTCHAR backslash
ENCODING 92
SWIDTH 464 0
DWIDTH 6 0
BBX 5 13 0 -2
BITMAP
4000
6000
3000
2400
1800
1800
0C00
0900
0600
0600
0300
0240
0140
ENDCHAR
STARTCHAR bracketright
ENCODING 93
SWIDTH 394 0
DWIDTH 5 0
BBX 7 13 -1 -2
BITMAP
00B4
0034
0070
00A0
00D0
01C0
0280
0340
0700
0A00
0D00
1C00
6400
ENDCHAR
STARTCHAR asciicircum
ENCODING 94
SWIDTH 540 0
DWIDTH 6 0
BBX 6 5 1 4
BITMAP
0900
1F00
2640
6180
8090
ENDCHAR
STARTCHAR underscore
ENCODING 95
SWIDTH 530 0
DWIDTH 6 0
BBX 8 1 -2 -2
BITMAP
AAAA
ENDCHAR
STARTCHAR grave
ENCODING 96
SWIDTH 219 0
DWIDTH 3 0
BBX 2 3 0 6
BITMAP
60
60
20
ENDCHAR
STARTCHAR a
ENCODING 97
SWIDTH 541 0
DWIDTH 7 0
BBX 7 6 0 0
BITMAP
06A4
2870
74A0
A1D0
A2C0
79F0
ENDCHAR
STARTCHAR b
ENCODING 98
SWIDTH 525 0
DWIDTH 6 0
BBX 6 10 0 0
BITMAP
0600
0A00
0D00
1C00
2AD0
3CA0
74A0
60D0
62C0
2A00
ENDCHAR
STARTCHAR c
ENCODING 99
SWIDTH 465 0
DWIDTH 6 0
BBX 6 6 0 0
BITMAP
0A90
2890
75C0
A000
A040
2A00
ENDCHAR
STARTCHAR d
ENCODING 100
SWIDTH 557 0
DWIDTH 7 0
BBX 8 10 0 0
BITMAP
0006
000D
001C
0028
06B4
1C70
34A0
70D0
72D0
39A4
ENDCHAR
STARTCHAR e
ENCODING 101
SWIDTH 471 0
DWIDTH 6 0
BBX 6 6 0 0
BITMAP
06C0
2890
35C0
7A40
7040
2A40
ENDCHAR
STARTCHAR f
ENCODING 102
SWIDTH 393 0
DWIDTH 5 0
BBX 7 12 0 -2
BITMAP
01A0
0364
0734
0A10
0D00
2E80
2800
2400
3400
7000
9000
8000
ENDCHAR
STARTCHAR g
ENCODING 103
SWIDTH 526 0
DWIDTH 6 0
BBX 7 10 0 -4
BITMAP
0694
2870
34A0
70D0
62C0
7A80
0240
0600
2800
1000
ENDCHAR
STARTCHAR h
ENCODING 104
SWIDTH 555 0
DWIDTH 7 0
BBX 6 10 0 0
BITMAP
0300
0700
0A00
0D00
0DB0
1A70
28A0
74D0
A1C0
D0E0
ENDCHAR
STARTCHAR i
ENCODING 105
SWIDTH 286 0
DWIDTH 3 0
BBX 4 9 0 0
BITMAP
0A
05
00
2C
18
24
70
A0
74
ENDCHAR
STARTCHAR j
ENCODING 106
SWIDTH 281 0
DWIDTH 3 0
BBX 6 12 -2 -3
BITMAP
00D0
0090
0000
0280
0280
0280
0340
0700
0A00
1C00
2400
9000
ENDCHAR
STARTCHAR k
ENCODING 107
SWIDTH 497 0
DWIDTH 6 0
BBX 6 10 0 0
BITMAP
0300
0700
0A00
0D00
0C70
18A0
2A80
7D00
A740
D2D0
ENDCHAR
STARTCHAR l
ENCODING 108
SWIDTH 279 0
DWIDTH 3 0
BBX 4 10 0 0
BITMAP
06
0A
09
0D
1C
28
34
70
A0
74
ENDCHAR
STARTCHAR m
ENCODING 109
SWIDTH 814 0
DWIDTH 10 0
BBX 10 6 0 0
BITMAP
2CA2C0
1A39D0
287680
34E340
A1C700
918380
ENDCHAR
STARTCHAR n
ENCODING 110
SWIDTH 561 0
DWIDTH 7 0
BBX 7 6 0 0
BITMAP
28B0
1A74
28B0
34D0
A1C0
90E0
ENDCHAR
STARTCHAR o
ENCODING 111
SWIDTH 514 0
DWIDTH 6 0
BBX 6 6 0 0
BITMAP
0AD0
28A0
74A0
70D0
A280
2A00
ENDCHAR
STARTCHAR p
ENCODING 112
SWIDTH 550 0
DWIDTH 7 0
BBX 7 9 -1 -3
BITMAP
0AB8
0B5C
0E1C
1C28
1C70
2A90
3000
6000
9000
ENDCHAR
STARTCHAR q
ENCODING 113
SWIDTH 533 0
DWIDTH 6 0
BBX 7 9 0 -3
BITMAP
0694
1C74
34A0
70D0
62C0
3A80
0240
0300
0300
ENDCHAR
STARTCHAR r
ENCODING 114
SWIDTH 407 0
DWIDTH 5 0
BBX 6 6 0 0
BITMAP
29D0
2A90
2800
3400
B000
9000
ENDCHAR
STARTCHAR s
ENCODING 115
SWIDTH 423 0
DWIDTH 5 0
BBX 5 6 0 0
BITMAP
1A80
24C0
2800
0E00
9A00
B900
ENDCHAR
STARTCHAR t
ENCODING 116
SWIDTH 358 0
DWIDTH 4 0
BBX 4 8 1 0
BITMAP
04
28
BA
70
A0
D0
D4
B4
ENDCHAR
STARTCHAR u
ENCODING 117
SWIDTH 553 0
DWIDTH 7 0
BBX 7 6 0 0
BITMAP
1C24
1C70
38A0
71D0
A6C0
74E0
ENDCHAR
STARTCHAR v
ENCODING 118
SWIDTH 510 0
DWIDTH 6 0
BBX 6 6 0 0
BITMAP
1CA0
1C70
2460
7090
A240
7900
ENDCHAR
STARTCHAR w
ENCODING 119
SWIDTH 750 0
DWIDTH 9 0
BBX 9 6 0 0
BITMAP
2C1280
1CA180
24D180
32C240
69C500
74B400
ENDCHAR
STARTCHAR x
ENCODING 120
SWIDTH 467 0
DWIDTH 6 0
BBX 6 6 0 0
BITMAP
18A0
2A80
2E00
1C00
2D00
9780
ENDCHAR
STARTCHAR y
ENCODING 121
SWIDTH 549 0
DWIDTH 7 0
BBX 7 10 0 -4
BITMAP
1C24
1C74
28B0
75E0
A6D0
7580
0240
0600
1C00
1000
ENDCHAR
STARTCHAR z
ENCODING 122
SWIDTH 430 0
DWIDTH 5 0
BBX 6 6 0 0
BITMAP
1AD0
06C0
0B00
2800
B500
AA40
ENDCHAR
STARTCHAR braceleft
ENCODING 123
SWIDTH 424 0
DWIDTH 5 0
BBX 7 13 0 -2
BITMAP
0064
00D0
01C0
0280
0240
0700
2D00
1800
1C00
2800
3400
7000
6400
ENDCHAR
STARTCHAR bar
ENCODING 124
SWIDTH 306 0
DWIDTH 4 0
BBX 2 13 1 -2
BITMAP
60
A0
A0
A0
A0
A0
A0
A0
A0
A0
A0
A0
50
ENDCHAR
STARTCHAR braceright
ENCODING 125
SWIDTH 424 0
DWIDTH 5 0
BBX 7 13 -1 -2
BITMAP
00A0
0034
0070
00A0
00D0
00C0
01D0
0740
0A00
0D00
0C00
2800
6400
ENDCHAR
STARTCHAR asciitilde
ENCODING 126
SWIDTH 624 0
DWIDTH 8 0
BBX 7 3 0 3
BITMAP
0A04
2288
50A0
ENDCHAR
STARTCHAR nonbreakingspace
ENCODING 160
SWIDTH 293 0
DWIDTH 4 0
BBX 1 1 0 0
BITMAP
00
ENDCHAR
STARTCHAR exclamdown
ENCODING 161
SWIDTH 417 0
DWIDTH 5 0
BBX 5 10 0 -3
BITMAP
0240
0740
0000
0800
1800
2400
7400
7000
A000
6000
ENDCHAR
STARTCHAR cent
ENCODING 162
SWIDTH 487 0
DWIDTH 6 0
BBX 5 9 1 0
BITMAP
0180
0300
2E40
7180
E240
D000
D200
7900
6000
ENDCHAR
STARTCHAR sterling
ENCODING 163
SWIDTH 665 0
DWIDTH 8 0
BBX 9 9 -1 0
BITMAP
000A80
0028C0
0072C0
00A640
06E400
028000
2B4000
67C100
2EBA00
ENDCHAR
STARTCHAR currency
ENCODING 164
SWIDTH 572 0
DWIDTH 7 0
BBX 6 8 1 0
BITMAP
1400
1EA0
28C0
71C0
A2C0
A740
AB00
4140
ENDCHAR
STARTCHAR yen
ENCODING 165
SWIDTH 583 0
DWIDTH 7 0
BBX 8 9 1 0
BITMAP
E01D
3478
28E0
0A80
0F00
6F80
0D00
BE40
2800
ENDCHAR
STARTCHAR brokenbar
ENCODING 166
SWIDTH 292 0
DWIDTH 4 0
BBX 2 13 1 -2
BITMAP
50
90
90
90
90
90
00
50
90
90
90
90
90
ENDCHAR
STARTCHAR section
ENCODING 167
SWIDTH 583 0
DWIDTH 7 0
BBX 8 13 0 -3
BITMAP
01A4
034C
075D
0368
07C0
19D0
34A0
2870
1DA0
0B40
5700
D700
6900
ENDCHAR
STARTCHAR dieresis
ENCODING 168
SWIDTH 412 0
DWIDTH 5 0
BBX 5 2 0 7
BITMAP
76C0
6140
ENDCHAR
STARTCHAR copyright
ENCODING 169
SWIDTH 871 0
DWIDTH 10 0
BBX 9 9 1 0
BITMAP
06A900
19A640
735980
9A34C0
C910C0
C91180
D69340
601900
1AA400
ENDCHAR
STARTCHAR ordfeminine
ENCODING 170
SWIDTH 564 0
DWIDTH 7 0
BBX 6 6 1 3
BITMAP
0AA0
28D0
71C0
A280
A740
6580
ENDCHAR
STARTCHAR guillemotleft
ENCODING 171
SWIDTH 662 0
DWIDTH 8 0
BBX 7 5 1 1
BITMAP
0924
75D0
D340
75D0
0410
ENDCHAR
STARTCHAR logicalnot
ENCODING 172
SWIDTH 729 0
DWIDTH 9 0
BBX 7 4 1 1
BITMAP
AAA8
0018
0018
0014
ENDCHAR
STARTCHAR uni00AD
ENCODING 173
SWIDTH 833 0
DWIDTH 10 0
BBX 1 1 0 0
BITMAP
00
ENDCHAR
STARTCHAR registered
ENCODING 174
SWIDTH 742 0
DWIDTH 9 0
BBX 8 8 1 1
BITMAP
06A4
2548
6665
8696
8A85
88D8
6064
1A90
ENDCHAR
STARTCHAR macron
ENCODING 175
SWIDTH 392 0
DWIDTH 5 0
BBX 4 1 1 7
BITMAP
AA
ENDCHAR
STARTCHAR degree
ENCODING 176
SWIDTH 405 0
DWIDTH 5 0
BBX 5 4 1 5
BITMAP
2A00
6340
A700
6800
ENDCHAR
STARTCHAR plusminus
ENCODING 177
SWIDTH 617 0
DWIDTH 7 0
BBX 6 8 1 0
BITMAP
0800
0900
0900
AE90
0900
0800
0000
AA90
ENDCHAR
STARTCHAR twosuperior
ENCODING 178
SWIDTH 458 0
DWIDTH 6 0
BBX 5 6 1 3
BITMAP
1A40
3580
2740
1D00
7400
AA00
ENDCHAR
STARTCHAR threesuperior
ENCODING 179
SWIDTH 430 0
DWIDTH 5 0
BBX 5 7 1 2
BITMAP
1B40
2680
1740
1D00
4A00
C900
6400
ENDCHAR
STARTCHAR acute
ENCODING 180
SWIDTH 322 0
DWIDTH 4 0
BBX 3 3 1 7
BITMAP
14
34
90
ENDCHAR
STARTCHAR mu
ENCODING 181
SWIDTH 618 0
DWIDTH 7 0
BBX 8 9 -1 -3
BITMAP
0247
070A
0A1C
1D38
2DA8
3E1D
3000
6000
6000
ENDCHAR
STARTCHAR paragraph
ENCODING 182
SWIDTH 739 0
DWIDTH 9 0
BBX 10 11 0 -1
BITMAP
006AE0
02F8C0
07F5C0
0BF280
07E340
01E300
01D600
01C900
764C00
A71800
682000
ENDCHAR
STARTCHAR periodcentered
ENCODING 183
SWIDTH 353 0
DWIDTH 4 0
BBX 3 2 1 3
BITMAP
74
60
ENDCHAR
STARTCHAR cedilla
ENCODING 184
SWIDTH 301 0
DWIDTH 4 0
BBX 2 3 1 -3
BITMAP
50
60
D0
ENDCHAR
STARTCHAR onesuperior
ENCODING 185
SWIDTH 403 0
DWIDTH 5 0
BBX 4 6 1 3
BITMAP
0A
6E
0D
1C
24
60
ENDCHAR
STARTCHAR ordmasculine
ENCODING 186
SWIDTH 498 0
DWIDTH 6 0
BBX 5 6 1 3
BITMAP
0A40
29C0
71C0
A280
A740
6900
ENDCHAR
STARTCHAR guillemotright
ENCODING 187
SWIDTH 665 0
DWIDTH 8 0
BBX 6 4 1 2
BITMAP
6180
28A0
1C70
A280
ENDCHAR
STARTCHAR onequarter
ENCODING 188
SWIDTH 988 0
DWIDTH 12 0
BBX 10 10 1 0
BITMAP
000100
0D0900
6D1800
1C3500
28A700
31CA60
525CA0
061AE0
0D0280
180200
ENDCHAR
STARTCHAR onehalf
ENCODING 189
SWIDTH 988 0
DWIDTH 12 0
BBX 10 10 1 0
BITMAP
000600
090C00
7D2400
5C7000
2896A0
318630
5340A0
0602C0
0C0A00
142E80
ENDCHAR
STARTCHAR threequarters
ENCODING 190
SWIDTH 1007 0
DWIDTH 12 0
BBX 11 10 0 0
BITMAP
000040
0A81C0
18D240
068640
070C90
6328CC
29725C
0091B8
018030
020050
ENDCHAR
STARTCHAR questiondown
ENCODING 191
SWIDTH 516 0
DWIDTH 6 0
BBX 6 9 0 -2
BITMAP
00D0
0090
0040
0240
1E00
7800
9300
C700
6900
ENDCHAR
STARTCHAR Agrave
ENCODING 192
SWIDTH 615 0
DWIDTH 7 0
BBX 9 12 -1 0
BITMAP
000500
000A00
000100
000680
002640
009700
018A00
07FF40
0A1C00
0C1800
242800
A01D00
ENDCHAR
STARTCHAR Aacute
ENCODING 193
SWIDTH 615 0
DWIDTH 7 0
BBX 10 12 -1 0
BITMAP
000050
0001D0
000100
000680
002640
009700
018A00
07FF40
0A1C00
0C1800
242800
A01D00
ENDCHAR
STARTCHAR Acircumflex
ENCODING 194
SWIDTH 615 0
DWIDTH 7 0
BBX 10 12 -1 0
BITMAP
000140
0006C0
000450
000680
002640
009700
018A00
07FF40
0A1C00
0C1800
242800
A01D00
ENDCHAR
STARTCHAR Atilde
ENCODING 195
SWIDTH 615 0
DWIDTH 7 0
BBX 10 12 -1 0
BITMAP
000A10
001190
000000
000680
002640
009700
018A00
07FF40
0A1C00
0C1800
242800
A01D00
ENDCHAR
STARTCHAR Adieresis
ENCODING 196
SWIDTH 615 0
DWIDTH 7 0
BBX 10 12 -1 0
BITMAP
000450
001DB0
000000
000680
002640
009700
018A00
07FF40
0A1C00
0C1800
242800
A01E00
ENDCHAR
STARTCHAR Aring
ENCODING 197
SWIDTH 615 0
DWIDTH 7 0
BBX 10 12 -1 0
BITMAP
000280
000990
000990
000BC0
002A40
00A300
018A00
0BAE40
091C00
1C2800
242800
A01D00
ENDCHAR
STARTCHAR AE
ENCODING 198
SWIDTH 878 0
DWIDTH 11 0
BBX 13 9 -1 0
BITMAP
000AEE00
0026D240
00A34700
01830900
07ABE000
090B4000
1C0D0400
340E6800
A007E000
ENDCHAR
STARTCHAR Ccedilla
ENCODING 199
SWIDTH 533 0
DWIDTH 6 0
BBX 8 12 0 -3
BITMAP
01A8
0749
0D1C
2838
3400
7000
7000
7450
2E80
0800
1C00
1400
ENDCHAR
STARTCHAR Egrave
ENCODING 200
SWIDTH 509 0
DWIDTH 6 0
BBX 7 12 0 0
BITMAP
0040
00D0
0010
02E8
0A0C
1C28
2860
1E40
2D00
7400
7080
2A40
ENDCHAR
STARTCHAR Eacute
ENCODING 201
SWIDTH 509 0
DWIDTH 6 0
BBX 7 12 0 0
BITMAP
0008
001C
0010
02E8
0A0C
1C28
2860
1E40
2D00
7400
7080
2A40
ENDCHAR
STARTCHAR Ecircumflex
ENCODING 202
SWIDTH 509 0
DWIDTH 6 0
BBX 7 12 0 0
BITMAP
0014
00A8
0144
02E8
0A0C
1C28
2860
1E40
2D00
7400
7080
2A40
ENDCHAR
STARTCHAR Edieresis
ENCODING 203
SWIDTH 509 0
DWIDTH 6 0
BBX 8 12 0 0
BITMAP
0145
02CE
0000
02E8
0A0C
1C28
2860
1E40
2D00
7400
7080
2A40
ENDCHAR
STARTCHAR Igrave
ENCODING 204
SWIDTH 327 0
DWIDTH 4 0
BBX 5 12 0 0
BITMAP
0500
0A00
0140
2E00
0700
0700
0A00
0D00
1C00
2800
7000
9000
ENDCHAR
STARTCHAR Iacute
ENCODING 205
SWIDTH 327 0
DWIDTH 4 0
BBX 6 12 0 0
BITMAP
0050
00D0
0140
2E00
0700
0700
0A00
0D00
1C00
2800
7000
9000
ENDCHAR
STARTCHAR Icircumflex
ENCODING 206
SWIDTH 327 0
DWIDTH 4 0
BBX 6 12 0 0
BITMAP
0040
06D0
0450
2E00
0700
0700
0A00
0D00
1C00
2800
7000
9000
ENDCHAR
STARTCHAR Idieresis
ENCODING 207
SWIDTH 327 0
DWIDTH 4 0
BBX 6 12 0 0
BITMAP
0450
1DB0
0400
2E00
0700
0700
0A00
0D00
1C00
2800
7000
9000
ENDCHAR
STARTCHAR Eth
ENCODING 208
SWIDTH 630 0
DWIDTH 8 0
BBX 8 9 0 0
BITMAP
1AA4
150D
0E0A
7F8A
280D
342C
7074
61D0
6A00
ENDCHAR
STARTCHAR Ntilde
ENCODING 209
SWIDTH 708 0
DWIDTH 9 0
BBX 10 11 0 0
BITMAP
001A90
000000
01C1C0
07C1D0
0DC1C0
19C280
25C300
30D600
60E800
907800
902400
ENDCHAR
STARTCHAR Ograve
ENCODING 210
SWIDTH 655 0
DWIDTH 8 0
BBX 8 12 0 0
BITMAP
0010
0028
0004
00AD
0747
0E07
2C07
340A
341D
7028
30A0
1A80
ENDCHAR
STARTCHAR Oacute
ENCODING 211
SWIDTH 655 0
DWIDTH 8 0
BBX 8 12 0 0
BITMAP
0002
0007
0004
00AD
0747
0E07
2C07
340A
341D
7028
30A0
1A80
ENDCHAR
STARTCHAR Ocircumflex
ENCODING 212
SWIDTH 655 0
DWIDTH 8 0
BBX 8 12 0 0
BITMAP
0005
002B
0051
00AD
0747
0E07
2C07
340A
341D
7028
30A0
1A80
ENDCHAR
STARTCHAR Otilde
ENCODING 213
SWIDTH 655 0
DWIDTH 8 0
BBX 9 12 0 0
BITMAP
002840
004A40
000000
00AD00
074700
0E0700
2C0700
340A00
341D00
702800
30A000
1A8000
ENDCHAR
STARTCHAR Odieresis
ENCODING 214
SWIDTH 655 0
DWIDTH 8 0
BBX 9 12 0 0
BITMAP
005140
00B380
000000
00AD00
074700
0E0700
2C0700
340A00
341D00
702800
30A000
1A8000
ENDCHAR
STARTCHAR multiply
ENCODING 215
SWIDTH 573 0
DWIDTH 7 0
BBX 5 5 1 2
BITMAP
9080
2640
0D00
2740
9180
ENDCHAR
STARTCHAR Oslash
ENCODING 216
SWIDTH 655 0
DWIDTH 8 0
BBX 8 11 1 -1
BITMAP
0009
02FC
0A2D
2C9D
758D
B21C
A528
D870
B5D0
7A40
8000
ENDCHAR
STARTCHAR Ugrave
ENCODING 217
SWIDTH 624 0
DWIDTH 8 0
BBX 9 12 0 0
BITMAP
005000
007000
001400
0B0340
070700
0E0E00
1C1C00
283800
34B800
A1B400
A27000
783800
ENDCHAR
STARTCHAR Uacute
ENCODING 218
SWIDTH 624 0
DWIDTH 8 0
BBX 9 12 0 0
BITMAP
000500
000D00
001400
0B0340
070700
0E0E00
1C1C00
283800
34B800
A1B400
A27000
783800
ENDCHAR
STARTCHAR Ucircumflex
ENCODING 219
SWIDTH 624 0
DWIDTH 8 0
BBX 9 12 0 0
BITMAP
000400
006D00
004500
0B0340
070700
0E0E00
1C1C00
283800
34B800
A1B400
A27000
783800
ENDCHAR
STARTCHAR Udieresis
ENCODING 220
SWIDTH 624 0
DWIDTH 8 0
BBX 9 12 0 0
BITMAP
004500
01DB00
004000
0B0340
070700
0E0E00
1C1C00
283800
34B800
A1B400
A27000
783800
ENDCHAR
STARTCHAR Yacute
ENCODING 221
SWIDTH 580 0
DWIDTH 7 0
BBX 8 15 0 -3
BITMAP
0005
001D
0010
0B03
0707
0E0D
1C2C
2838
74B4
A1B0
A2A0
79C0
0240
0A00
2400
ENDCHAR
STARTCHAR Thorn
ENCODING 222
SWIDTH 527 0
DWIDTH 6 0
BBX 8 9 -1 0
BITMAP
0F80
0280
03E4
034D
070D
0A68
1E90
2800
6000
ENDCHAR
STARTCHAR germandbls
ENCODING 223
SWIDTH 520 0
DWIDTH 6 0
BBX 8 12 -1 -2
BITMAP
0068
0189
034D
071C
0A70
0D90
0CA0
1C34
2A58
36E4
7000
5000
ENDCHAR
STARTCHAR agrave
ENCODING 224
SWIDTH 541 0
DWIDTH 7 0
BBX 7 9 0 0
BITMAP
0180
0180
0040
06A4
2870
74A0
A1D0
A2C0
79F0
ENDCHAR
STARTCHAR aacute
ENCODING 225
SWIDTH 541 0
DWIDTH 7 0
BBX 7 10 0 0
BITMAP
0010
0060
00D0
0100
06A4
2870
74A0
A1D0
A2C0
79F0
ENDCHAR
STARTCHAR acircumflex
ENCODING 226
SWIDTH 541 0
DWIDTH 7 0
BBX 7 9 0 0
BITMAP
0060
02B0
0514
06A4
2870
74A0
A1D0
A2C0
79F0
ENDCHAR
STARTCHAR atilde
ENCODING 227
SWIDTH 541 0
DWIDTH 7 0
BBX 7 9 0 0
BITMAP
0288
04A4
0000
06A4
2870
74A0
A1D0
A2C0
79F0
ENDCHAR
STARTCHAR adieresis
ENCODING 228
SWIDTH 541 0
DWIDTH 7 0
BBX 7 9 0 0
BITMAP
0728
0614
0000
06A4
2870
74A0
A1D0
A2C0
79F0
ENDCHAR
STARTCHAR aring
ENCODING 229
SWIDTH 541 0
DWIDTH 7 0
BBX 7 9 0 0
BITMAP
02B0
02A0
0000
06A4
2870
74A0
A1D0
A2C0
79F0
ENDCHAR
STARTCHAR ae
ENCODING 230
SWIDTH 769 0
DWIDTH 9 0
BBX 9 6 0 0
BITMAP
06AB80
2875C0
70A380
A1EA00
A2D100
787A00
ENDCHAR
STARTCHAR ccedilla
ENCODING 231
SWIDTH 465 0
DWIDTH 6 0
BBX 6 9 0 -3
BITMAP
0A90
2890
71C0
A000
A040
2A00
0800
2800
1000
ENDCHAR
STARTCHAR egrave
ENCODING 232
SWIDTH 471 0
DWIDTH 6 0
BBX 6 9 0 0
BITMAP
0340
0340
0040
06C0
2890
35C0
7A40
7040
2A40
ENDCHAR
STARTCHAR eacute
ENCODING 233
SWIDTH 471 0
DWIDTH 6 0
BBX 6 10 0 0
BITMAP
0040
00D0
0280
0100
06C0
2890
35C0
7A40
7040
2A40
ENDCHAR
STARTCHAR ecircumflex
ENCODING 234
SWIDTH 471 0
DWIDTH 6 0
BBX 6 9 0 0
BITMAP
0090
06A0
0410
06C0
2890
35C0
7A40
7040
2A40
ENDCHAR
STARTCHAR edieresis
ENCODING 235
SWIDTH 471 0
DWIDTH 6 0
BBX 7 9 0 0
BITMAP
0E74
0920
0000
06C0
2890
35D0
7A40
7040
2A40
ENDCHAR
STARTCHAR igrave
ENCODING 236
SWIDTH 286 0
DWIDTH 3 0
BBX 3 9 0 0
BITMAP
1C
0C
04
2C
18
24
70
A0
74
ENDCHAR
STARTCHAR iacute
ENCODING 237
SWIDTH 286 0
DWIDTH 3 0
BBX 4 10 0 0
BITMAP
01
07
0A
14
2C
18
24
70
A0
74
ENDCHAR
STARTCHAR icircumflex
ENCODING 238
SWIDTH 286 0
DWIDTH 3 0
BBX 5 9 0 0
BITMAP
0700
1A40
1040
2C00
1800
2400
7000
A000
7400
ENDCHAR
STARTCHAR idieresis
ENCODING 239
SWIDTH 286 0
DWIDTH 3 0
BBX 5 9 0 0
BITMAP
75C0
2180
0000
2C00
1800
2400
7000
A000
7400
ENDCHAR
STARTCHAR eth
ENCODING 240
SWIDTH 524 0
DWIDTH 6 0
BBX 7 10 0 0
BITMAP
0050
0034
01B4
0024
06B4
2870
34A0
70D0
6280
3A00
ENDCHAR
STARTCHAR ntilde
ENCODING 241
SWIDTH 561 0
DWIDTH 7 0
BBX 7 9 0 0
BITMAP
0288
04A4
0000
28B0
1A74
28B0
34D0
A1C0
90E0
ENDCHAR
STARTCHAR ograve
ENCODING 242
SWIDTH 514 0
DWIDTH 6 0
BBX 6 9 0 0
BITMAP
0180
01C0
0040
0AD0
28A0
74A0
70D0
A280
2A00
ENDCHAR
STARTCHAR oacute
ENCODING 243
SWIDTH 514 0
DWIDTH 6 0
BBX 6 10 0 0
BITMAP
0010
0070
00D0
0100
0AD0
28A0
74A0
70D0
A280
2A00
ENDCHAR
STARTCHAR ocircumflex
ENCODING 244
SWIDTH 514 0
DWIDTH 6 0
BBX 7 9 0 0
BITMAP
0070
02B4
0514
0AD0
28A0
74A0
70D0
A280
2A00
ENDCHAR
STARTCHAR otilde
ENCODING 245
SWIDTH 514 0
DWIDTH 6 0
BBX 7 9 0 0
BITMAP
02C8
0464
0000
0AD0
28A0
74A0
70D0
A280
2A00
ENDCHAR
STARTCHAR odieresis
ENCODING 246
SWIDTH 514 0
DWIDTH 6 0
BBX 7 9 0 0
BITMAP
076C
0614
0000
0AD0
28A0
74A0
70D0
A280
2A00
ENDCHAR
STARTCHAR divide
ENCODING 247
SWIDTH 617 0
DWIDTH 7 0
BBX 6 7 1 1
BITMAP
0500
0A00
0000
AAA0
0000
0E00
0400
ENDCHAR
STARTCHAR oslash
ENCODING 248
SWIDTH 514 0
DWIDTH 6 0
BBX 6 8 0 -1
BITMAP
0030
0AE0
29E0
76A0
75D0
6680
3E00
6000
ENDCHAR
STARTCHAR ugrave
ENCODING 249
SWIDTH 553 0
DWIDTH 7 0
BBX 7 9 0 0
BITMAP
00C0
00C0
0050
1C24
1C70
34E0
72D0
A9C0
74E0
ENDCHAR
STARTCHAR uacute
ENCODING 250
SWIDTH 553 0
DWIDTH 7 0
BBX 7 10 0 0
BITMAP
0010
0034
00A0
0040
1C24
1C70
38A0
71D0
A6C0
74E0
ENDCHAR
STARTCHAR ucircumflex
ENCODING 251
SWIDTH 553 0
DWIDTH 7 0
BBX 7 9 0 0
BITMAP
0074
01A8
0104
1C24
1C70
38A0
71D0
A6C0
74E0
ENDCHAR
STARTCHAR udieresis
ENCODING 252
SWIDTH 553 0
DWIDTH 7 0
BBX 7 9 0 0
BITMAP
035C
0258
0000
1C24
1C70
38A0
71D0
A6C0
74E0
ENDCHAR
STARTCHAR yacute
ENCODING 253
SWIDTH 549 0
DWIDTH 7 0
BBX 7 14 0 -4
BITMAP
0010
0070
00D0
0100
1C24
1C74
28B0
75E0
A6D0
7580
0240
0600
1C00
1000
ENDCHAR
STARTCHAR thorn
ENCODING 254
SWIDTH 552 0
DWIDTH 7 0
BBX 7 13 -1 -3
BITMAP
00C0
01C0
0280
0340
07A8
0B4C
0E1C
1C28
1C74
2A90
7000
A000
D000
ENDCHAR
STARTCHAR ydieresis
ENCODING 255
SWIDTH 549 0
DWIDTH 7 0
BBX 7 13 0 -4
BITMAP
0728
0614
0000
1C24
1C74
28B0
75E0
A6D0
7580
0240
0600
1C00
1000
ENDCHAR
STARTCHAR Amacron
ENCODING 256
SWIDTH 615 0
DWIDTH 7 0
BBX 10 11 -1 0
BITMAP
000A90
000000
000680
002640
009700
018A00
07FF40
0A1C00
0C1800
242800
A01D00
ENDCHAR
STARTCHAR amacron
ENCODING 257
SWIDTH 543 0
DWIDTH 7 0
BBX 7 8 0 0
BITMAP
06A4
0000
06A4
2870
74A0
71D0
A2C0
79F0
ENDCHAR
STARTCHAR Abreve
ENCODING 258
SWIDTH 615 0
DWIDTH 7 0
BBX 10 12 -1 0
BITMAP
000410
000690
000000
000680
002640
009700
018A00
07FF40
0A1C00
0C1800
242800
A01E00
ENDCHAR
STARTCHAR abreve
ENCODING 259
SWIDTH 543 0
DWIDTH 7 0
BBX 7 9 0 0
BITMAP
0314
02A0
0000
06A4
2870
74A0
71D0
A2C0
79F0
ENDCHAR
STARTCHAR Aogonek
ENCODING 260
SWIDTH 615 0
DWIDTH 7 0
BBX 9 12 -1 -3
BITMAP
000680
002640
009700
018A00
07FF40
0A1C00
0C1800
242800
A01E00
002400
007000
006400
ENDCHAR
STARTCHAR aogonek
ENCODING 261
SWIDTH 541 0
DWIDTH 7 0
BBX 7 9 0 -3
BITMAP
06A4
2870
74A0
A1D0
A2C0
79E0
0080
0240
0280
ENDCHAR
STARTCHAR Cacute
ENCODING 262
SWIDTH 533 0
DWIDTH 6 0
BBX 8 12 0 0
BITMAP
0002
000A
0004
01A8
0749
0D1C
2838
3400
7000
7000
7450
2E80
ENDCHAR
STARTCHAR cacute
ENCODING 263
SWIDTH 468 0
DWIDTH 6 0
BBX 7 10 0 0
BITMAP
0010
0034
00A0
0040
0A90
2890
74C0
B000
A040
2A00
ENDCHAR
STARTCHAR Ccircumflex
ENCODING 264
SWIDTH 533 0
DWIDTH 6 0
BBX 8 12 0 0
BITMAP
0005
002A
0051
01A8
0749
0D1C
2838
3400
7000
7000
7450
2E80
ENDCHAR
STARTCHAR ccircumflex
ENCODING 265
SWIDTH 468 0
DWIDTH 6 0
BBX 7 9 0 0
BITMAP
0060
02B0
0514
0A90
2890
74C0
B000
A040
2A00
ENDCHAR
STARTCHAR Cdotaccent
ENCODING 266
SWIDTH 533 0
DWIDTH 6 0
BBX 8 12 0 0
BITMAP
0014
0028
0000
01A8
0749
0D1C
2838
3400
7000
7000
7450
2E80
ENDCHAR
STARTCHAR cdotaccent
ENCODING 267
SWIDTH 468 0
DWIDTH 6 0
BBX 6 9 0 0
BITMAP
00D0
0090
0000
0A90
2890
74C0
B000
A040
2A00
ENDCHAR
STARTCHAR Ccaron
ENCODING 268
SWIDTH 533 0
DWIDTH 6 0
BBX 9 12 0 0
BITMAP
001040
003A40
001400
01A800
074900
0D1C00
283800
340000
700000
700000
745000
2E8000
ENDCHAR
STARTCHAR ccaron
ENCODING 269
SWIDTH 468 0
DWIDTH 6 0
BBX 7 9 0 0
BITMAP
0248
01E4
0040
0A90
2890
74C0
B000
A040
2A00
ENDCHAR
STARTCHAR Dcaron
ENCODING 270
SWIDTH 630 0
DWIDTH 8 0
BBX 8 12 0 0
BITMAP
0041
00AA
0010
1AA4
150D
0B0A
0D0A
2C0E
381C
7074
71D0
2A00
ENDCHAR
STARTCHAR dcaron
ENCODING 271
SWIDTH 557 0
DWIDTH 7 0
BBX 10 10 0 0
BITMAP
000660
000D60
001C80
002800
06B400
1C7000
34A000
70D000
72D000
39A400
ENDCHAR
STARTCHAR Dcroat
ENCODING 272
SWIDTH 630 0
DWIDTH 8 0
BBX 8 9 0 0
BITMAP
1AA4
140D
0B0A
0D0A
7F8D
342C
7074
61D0
7A00
ENDCHAR
STARTCHAR dcroat
ENCODING 273
SWIDTH 557 0
DWIDTH 7 0
BBX 8 10 0 0
BITMAP
000A
00BE
001C
0028
06B4
1C70
34A0
70D0
72D0
39A4
ENDCHAR
STARTCHAR Emacron
ENCODING 274
SWIDTH 509 0
DWIDTH 6 0
BBX 8 11 0 0
BITMAP
01A9
0000
02E8
0A0C
1C28
2860
1E40
2D00
7400
7080
2A40
ENDCHAR
STARTCHAR emacron
ENCODING 275
SWIDTH 471 0
DWIDTH 6 0
BBX 6 8 0 0
BITMAP
0AA0
0000
06C0
2890
35C0
7A40
7040
2A40
ENDCHAR
STARTCHAR Ebreve
ENCODING 276
SWIDTH 509 0
DWIDTH 6 0
BBX 8 12 0 0
BITMAP
0041
00A8
0000
02E8
0A0C
1C28
2860
1E40
2D00
7400
7080
2A40
ENDCHAR
STARTCHAR ebreve
ENCODING 277
SWIDTH 471 0
DWIDTH 6 0
BBX 6 9 0 0
BITMAP
0620
0290
0000
06C0
2890
35C0
7A40
7040
2A40
ENDCHAR
STARTCHAR Edotaccent
ENCODING 278
SWIDTH 509 0
DWIDTH 6 0
BBX 7 12 0 0
BITMAP
0050
00A0
0000
02E8
0A0C
1C28
2860
1E40
2D00
7400
7080
2A40
ENDCHAR
STARTCHAR edotaccent
ENCODING 279
SWIDTH 471 0
DWIDTH 6 0
BBX 6 9 0 0
BITMAP
02C0
0180
0000
06C0
2890
35C0
7A40
7040
2A40
ENDCHAR
STARTCHAR Eogonek
ENCODING 280
SWIDTH 509 0
DWIDTH 6 0
BBX 7 12 0 -3
BITMAP
02E8
0A0C
1C28
2860
1E40
2D00
7400
7080
2B40
0900
2800
2900
ENDCHAR
STARTCHAR eogonek
ENCODING 281
SWIDTH 471 0
DWIDTH 6 0
BBX 6 9 0 -3
BITMAP
06D0
1890
35D0
7A40
7040
2B40
0900
1800
1900
ENDCHAR
STARTCHAR Ecaron
ENCODING 282
SWIDTH 509 0
DWIDTH 6 0
BBX 8 12 0 0
BITMAP
0041
00E9
0050
02E8
0A0C
1C28
2860
1E40
2D00
7400
7080
2A40
ENDCHAR
STARTCHAR ecaron
ENCODING 283
SWIDTH 471 0
DWIDTH 6 0
BBX 7 9 0 0
BITMAP
0218
02A0
0100
06C0
2890
35C0
7A40
7040
2A40
ENDCHAR
STARTCHAR Gcircumflex
ENCODING 284
SWIDTH 598 0
DWIDTH 7 0
BBX 8 12 0 0
BITMAP
0005
002A
0051
01A8
0749
0D1C
2838
3400
70F8
7060
7080
2E40
ENDCHAR
STARTCHAR gcircumflex
ENCODING 285
SWIDTH 526 0
DWIDTH 6 0
BBX 7 13 0 -4
BITMAP
0070
02B4
0514
0694
2870
34A0
70D0
62C0
7A80
0240
0600
2800
1000
ENDCHAR
STARTCHAR Gbreve
ENCODING 286
SWIDTH 598 0
DWIDTH 7 0
BBX 9 12 0 0
BITMAP
001040
002A00
000000
01A800
074900
0D1C00
283800
340000
70F800
706000
708000
2E4000
ENDCHAR
STARTCHAR gbreve
ENCODING 287
SWIDTH 526 0
DWIDTH 6 0
BBX 7 13 0 -4
BITMAP
0208
01A0
0000
0694
2870
34A0
70D0
62C0
7A80
0240
0600
2800
1000
ENDCHAR
STARTCHAR Gdotaccent
ENCODING 288
SWIDTH 598 0
DWIDTH 7 0
BBX 8 12 0 0
BITMAP
0014
0038
0000
01A8
0749
0D1C
2838
3400
70F8
7060
7080
2E40
ENDCHAR
STARTCHAR gdotaccent
ENCODING 289
SWIDTH 526 0
DWIDTH 6 0
BBX 7 13 0 -4
BITMAP
00D0
0090
0000
0694
2870
34A0
70D0
62C0
7A80
0240
0600
2800
1000
ENDCHAR
STARTCHAR Gcommaaccent
ENCODING 290
SWIDTH 598 0
DWIDTH 7 0
BBX 8 12 0 -3
BITMAP
01A8
0749
0D1C
2838
3400
70F8
7060
7080
2E40
1400
2800
2000
ENDCHAR
STARTCHAR gcommaaccent
ENCODING 291
SWIDTH 526 0
DWIDTH 6 0
BBX 7 13 0 -4
BITMAP
0050
00D0
0000
0694
2870
34A0
70D0
62C0
7A80
0240
0600
2800
1000
ENDCHAR
STARTCHAR Hcircumflex
ENCODING 292
SWIDTH 668 0
DWIDTH 8 0
BBX 10 12 -1 0
BITMAP
000500
001B00
001140
0B8090
01C0D0
0281C0
038280
0BAB80
0A0700
0D0900
280D00
600E00
ENDCHAR
STARTCHAR hcircumflex
ENCODING 293
SWIDTH 555 0
DWIDTH 7 0
BBX 6 12 0 0
BITMAP
0040
07C0
18D0
0600
0A00
0900
0DB0
1A70
28A0
74D0
A1C0
D0E0
ENDCHAR
STARTCHAR Hbar
ENCODING 294
SWIDTH 668 0
DWIDTH 8 0
BBX 10 9 -1 0
BITMAP
0B8090
01C0D0
0BEAE0
034280
0BAB80
0A0700
0D0A00
280D00
600E00
ENDCHAR
STARTCHAR hbar
ENCODING 295
SWIDTH 555 0
DWIDTH 7 0
BBX 6 10 0 0
BITMAP
0700
1F90
0A00
0D00
1CB0
2A70
38A0
74D0
A1C0
D0E0
ENDCHAR
STARTCHAR Itilde
ENCODING 296
SWIDTH 327 0
DWIDTH 4 0
BBX 6 12 0 0
BITMAP
0A10
1590
0000
2E00
0700
0700
0A00
0D00
1C00
2800
7000
9000
ENDCHAR
STARTCHAR itilde
ENCODING 297
SWIDTH 286 0
DWIDTH 3 0
BBX 5 9 0 0
BITMAP
2D40
5640
0000
2C00
1800
2400
7000
A000
7400
ENDCHAR
STARTCHAR Imacron
ENCODING 298
SWIDTH 327 0
DWIDTH 4 0
BBX 6 11 0 0
BITMAP
0A90
0000
2E00
0700
0700
0A00
0D00
1C00
2800
7000
9000
ENDCHAR
STARTCHAR imacron
ENCODING 299
SWIDTH 286 0
DWIDTH 3 0
BBX 5 8 0 0
BITMAP
6A40
0000
2C00
1800
2400
7000
A000
7400
ENDCHAR
STARTCHAR Ibreve
ENCODING 300
SWIDTH 327 0
DWIDTH 4 0
BBX 6 12 0 0
BITMAP
0410
0690
0000
2E00
0700
0700
0A00
0D00
1C00
2800
7000
9000
ENDCHAR
STARTCHAR ibreve
ENCODING 301
SWIDTH 286 0
DWIDTH 3 0
BBX 5 9 0 0
BITMAP
2480
1A00
0000
2C00
1800
2400
7000
A000
7400
ENDCHAR
STARTCHAR Iogonek
ENCODING 302
SWIDTH 327 0
DWIDTH 4 0
BBX 6 12 -2 -3
BITMAP
02E0
0070
0070
00A0
00D0
01C0
0280
0700
0D00
2400
6000
6400
ENDCHAR
STARTCHAR iogonek
ENCODING 303
SWIDTH 297 0
DWIDTH 4 0
BBX 4 12 0 -3
BITMAP
0B
05
00
1C
1C
28
30
60
74
60
C0
90
ENDCHAR
STARTCHAR Idotaccent
ENCODING 304
SWIDTH 327 0
DWIDTH 4 0
BBX 5 12 0 0
BITMAP
0100
0740
0000
2E00
0700
0700
0A00
0D00
1C00
2800
7000
9000
ENDCHAR
STARTCHAR dotlessi
ENCODING 305
SWIDTH 286 0
DWIDTH 3 0
BBX 3 6 0 0
BITMAP
2C
18
24
70
A0
74
ENDCHAR
STARTCHAR IJ
ENCODING 306
SWIDTH 720 0
DWIDTH 9 0
BBX 9 12 0 -3
BITMAP
2E1F80
0775C0
070280
0A0380
0D0700
1C0A00
280D00
702C00
903400
00A000
028000
0A0000
ENDCHAR
STARTCHAR ij
ENCODING 307
SWIDTH 567 0
DWIDTH 7 0
BBX 7 12 0 -3
BITMAP
0A2C
0514
0000
2C74
1834
2470
70A0
A0D0
75C0
0240
0600
1800
ENDCHAR
STARTCHAR Jcircumflex
ENCODING 308
SWIDTH 393 0
DWIDTH 5 0
BBX 8 15 -2 -3
BITMAP
0005
002A
0051
01F8
075C
002C
0038
0074
00B0
00D0
01C0
0340
0A00
1C00
A000
ENDCHAR
STARTCHAR jcircumflex
ENCODING 309
SWIDTH 282 0
DWIDTH 3 0
BBX 7 13 -2 -3
BITMAP
0010
01B0
0624
0000
02C0
0280
0280
0340
0700
0A00
1C00
2400
9000
ENDCHAR
STARTCHAR Kcommaaccent
ENCODING 310
SWIDTH 616 0
DWIDTH 7 0
BBX 9 12 -1 -3
BITMAP
0B4280
028280
028740
034D00
076400
0AD000
0DB000
283800
601E00
010000
070000
050000
ENDCHAR
STARTCHAR kcommaaccent
ENCODING 311
SWIDTH 497 0
DWIDTH 6 0
BBX 6 13 0 -3
BITMAP
0300
0700
0A00
0D00
0C70
18A0
2A80
7D00
A740
D2D0
1400
2400
2000
ENDCHAR
STARTCHAR kgreenlandic
ENCODING 312
SWIDTH 497 0
DWIDTH 6 0
BBX 6 6 0 0
BITMAP
2870
18B0
2A80
7E00
B700
D290
ENDCHAR
STARTCHAR Lacute
ENCODING 313
SWIDTH 517 0
DWIDTH 6 0
BBX 7 12 0 0
BITMAP
0008
001C
0010
01A4
0358
0A28
0DB0
1C50
3800
7000
A540
EA90
ENDCHAR
STARTCHAR lacute
ENCODING 314
SWIDTH 279 0
DWIDTH 3 0
BBX 6 12 0 0
BITMAP
0040
01D0
0100
0600
0A00
0D00
1C00
2800
3400
7000
A000
7400
ENDCHAR
STARTCHAR Lcommaaccent
ENCODING 315
SWIDTH 517 0
DWIDTH 6 0
BBX 7 12 0 -3
BITMAP
01A4
0358
0A28
0DB0
1C50
3800
7000
A540
EA90
1000
3000
5000
ENDCHAR
STARTCHAR lcommaaccent
ENCODING 316
SWIDTH 279 0
DWIDTH 3 0
BBX 4 13 0 -3
BITMAP
06
0A
09
0D
1C
28
34
70
A0
74
50
60
90
ENDCHAR
STARTCHAR Lcaron
ENCODING 317
SWIDTH 517 0
DWIDTH 6 0
BBX 9 12 0 0
BITMAP
000040
0001C0
000180
01A500
035800
0A2800
0DB000
1C5000
380000
700000
A54000
EA9000
ENDCHAR
STARTCHAR lcaron
ENCODING 318
SWIDTH 467 0
DWIDTH 6 0
BBX 7 10 0 0
BITMAP
0628
0A24
0920
0D00
1C00
2800
3400
7000
A000
7400
ENDCHAR
STARTCHAR Ldot
ENCODING 319
SWIDTH 668 0
DWIDTH 8 0
BBX 8 9 0 0
BITMAP
01A4
0358
0A28
0DB0
1C56
3807
7000
A540
EA90
ENDCHAR
STARTCHAR ldot
ENCODING 320
SWIDTH 489 0
DWIDTH 6 0
BBX 6 10 0 0
BITMAP
0600
0A00
0900
0D00
1C00
28E0
3490
7000
A000
7400
ENDCHAR
STARTCHAR Lslash
ENCODING 321
SWIDTH 517 0
DWIDTH 6 0
BBX 7 9 0 0
BITMAP
01A4
0358
0A28
0D74
1C90
BE00
7000
A540
EA90
ENDCHAR
STARTCHAR lslash
ENCODING 322
SWIDTH 279 0
DWIDTH 3 0
BBX 6 10 0 0
BITMAP
0800
0B90
0A00
0D00
1C00
2800
3400
7000
A000
7400
ENDCHAR
STARTCHAR Nacute
ENCODING 323
SWIDTH 708 0
DWIDTH 9 0
BBX 10 12 0 0
BITMAP
000080
000280
000100
01C1C0
07C1D0
0DC1C0
19C280
25C300
30D600
60E800
907800
902400
ENDCHAR
STARTCHAR nacute
ENCODING 324
SWIDTH 561 0
DWIDTH 7 0
BBX 7 10 0 0
BITMAP
0010
0034
00A0
0040
28B0
1A74
28B0
34D0
A1C0
90E0
ENDCHAR
STARTCHAR Ncommaaccent
ENCODING 325
SWIDTH 708 0
DWIDTH 9 0
BBX 10 12 0 -3
BITMAP
01C1C0
07C1D0
0DC1C0
19C280
25C300
30D600
60E800
907800
902400
010000
034000
060000
ENDCHAR
STARTCHAR ncommaaccent
ENCODING 326
SWIDTH 561 0
DWIDTH 7 0
BBX 7 9 0 -3
BITMAP
28B0
1A74
28B0
34D0
A1C0
90E0
1400
2800
2000
ENDCHAR
STARTCHAR Ncaron
ENCODING 327
SWIDTH 708 0
DWIDTH 9 0
BBX 10 12 0 0
BITMAP
001410
000E90
000500
01C1C0
07C1D0
0DC1C0
19C280
25C300
30D600
60E800
907800
902400
ENDCHAR
STARTCHAR ncaron
ENCODING 328
SWIDTH 561 0
DWIDTH 7 0
BBX 7 9 0 0
BITMAP
0248
01E4
0040
28B0
1A74
28B0
34D0
A1C0
90E0
ENDCHAR
STARTCHAR Eng
ENCODING 330
SWIDTH 698 0
DWIDTH 8 0
BBX 9 12 0 -3
BITMAP
02C280
07C1C0
0E81C0
29C180
31C240
61D300
A0D600
90B800
803400
00A000
028000
0A0000
ENDCHAR
STARTCHAR eng
ENCODING 331
SWIDTH 561 0
DWIDTH 7 0
BBX 7 9 0 -3
BITMAP
28B0
1A34
2870
34A0
A0D0
D280
0740
0900
2800
ENDCHAR
STARTCHAR Omacron
ENCODING 332
SWIDTH 655 0
DWIDTH 8 0
BBX 9 11 0 0
BITMAP
006A40
000000
00AD00
074700
0E0700
2C0700
340A00
341D00
702800
30A000
1A8000
ENDCHAR
STARTCHAR omacron
ENCODING 333
SWIDTH 514 0
DWIDTH 6 0
BBX 7 8 0 0
BITMAP
06A4
0000
0AD0
28A0
74A0
70D0
A280
2A00
ENDCHAR
STARTCHAR Obreve
ENCODING 334
SWIDTH 655 0
DWIDTH 8 0
BBX 9 12 0 0
BITMAP
001040
002A00
000000
00AD00
074700
0E0700
2C0700
340A00
341D00
702800
30A000
1A8000
ENDCHAR
STARTCHAR obreve
ENCODING 335
SWIDTH 514 0
DWIDTH 6 0
BBX 7 9 0 0
BITMAP
0248
01A0
0000
0AD0
28A0
74A0
70D0
A280
2A00
ENDCHAR
STARTCHAR Ohungarumlaut
ENCODING 336
SWIDTH 655 0
DWIDTH 8 0
BBX 9 12 0 0
BITMAP
001480
002680
001100
00AD00
074700
0E0700
2C0700
340A00
341D00
702800
30A000
1A8000
ENDCHAR
STARTCHAR ohungarumlaut
ENCODING 337
SWIDTH 514 0
DWIDTH 6 0
BBX 7 10 0 0
BITMAP
0044
019C
0264
0450
0AD0
28A0
74A0
70D0
A280
2A00
ENDCHAR
STARTCHAR OE
ENCODING 338
SWIDTH 900 0
DWIDTH 11 0
BBX 12 9 1 0
BITMAP
01A9E8
0B0B49
1C0D2C
381C24
700A40
A01E40
A03800
A0B490
2A6A80
ENDCHAR
STARTCHAR oe
ENCODING 339
SWIDTH 777 0
DWIDTH 9 0
BBX 10 6 0 0
BITMAP
069680
1D78D0
3475C0
70BA00
71E040
2A6A40
ENDCHAR
STARTCHAR Racute
ENCODING 340
SWIDTH 623 0
DWIDTH 7 0
BBX 9 12 -1 0
BITMAP
000200
000700
000400
02E900
064340
01C340
038700
076D00
0AE000
0D7000
282800
601E00
ENDCHAR
STARTCHAR racute
ENCODING 341
SWIDTH 407 0
DWIDTH 5 0
BBX 6 9 0 0
BITMAP
00A0
0180
0100
29D0
2A90
2800
3400
B000
9000
ENDCHAR
STARTCHAR Rcommaaccent
ENCODING 342
SWIDTH 623 0
DWIDTH 7 0
BBX 9 12 -1 -3
BITMAP
02E900
064340
01C340
038700
076D00
0AE000
0D7000
282800
601E00
050000
070000
090000
ENDCHAR
STARTCHAR rcommaaccent
ENCODING 343
SWIDTH 407 0
DWIDTH 5 0
BBX 7 9 -1 -3
BITMAP
0A74
0AA4
0A00
0D00
2C00
2400
1000
3000
5000
ENDCHAR
STARTCHAR Rcaron
ENCODING 344
SWIDTH 623 0
DWIDTH 7 0
BBX 9 12 -1 0
BITMAP
001040
003A40
001400
02E900
064340
01C340
038700
076D00
0AE000
0D7000
282800
601E00
ENDCHAR
STARTCHAR rcaron
ENCODING 345
SWIDTH 407 0
DWIDTH 5 0
BBX 7 9 0 0
BITMAP
0614
0390
0100
29D0
2A90
2800
3400
B000
9000
ENDCHAR
STARTCHAR Sacute
ENCODING 346
SWIDTH 474 0
DWIDTH 6 0
BBX 7 12 0 0
BITMAP
0008
001C
0010
06A0
0D24
2828
28B0
1D00
0B00
1340
A340
7900
ENDCHAR
STARTCHAR sacute
ENCODING 347
SWIDTH 423 0
DWIDTH 5 0
BBX 6 9 0 0
BITMAP
00A0
01C0
0100
1A80
24C0
2800
0E00
9A00
B900
ENDCHAR
STARTCHAR Scircumflex
ENCODING 348
SWIDTH 474 0
DWIDTH 6 0
BBX 7 12 0 0
BITMAP
0014
00A8
0144
06A0
0D24
2828
28B0
1D00
0B00
1340
A340
7900
ENDCHAR
STARTCHAR scircumflex
ENCODING 349
SWIDTH 423 0
DWIDTH 5 0
BBX 6 9 0 0
BITMAP
0090
06A0
0410
1A80
24C0
2800
0E00
9A00
B900
ENDCHAR
STARTCHAR Scedilla
ENCODING 350
SWIDTH 474 0
DWIDTH 6 0
BBX 7 12 0 -3
BITMAP
06A0
0D24
2828
28B0
1D00
0A00
1340
A340
7A00
1400
2800
2000
ENDCHAR
STARTCHAR scedilla
ENCODING 351
SWIDTH 423 0
DWIDTH 5 0
BBX 5 9 0 -3
BITMAP
1A80
24C0
2800
0E00
9A00
B900
2000
3000
A000
ENDCHAR
STARTCHAR Scaron
ENCODING 352
SWIDTH 474 0
DWIDTH 6 0
BBX 8 12 0 0
BITMAP
0041
00E9
0050
06A0
0D24
2828
28B0
1D00
0B00
1340
A340
7900
ENDCHAR
STARTCHAR scaron
ENCODING 353
SWIDTH 423 0
DWIDTH 5 0
BBX 7 9 0 0
BITMAP
0218
03A0
0100
1A80
24C0
2800
0E00
9A00
B900
ENDCHAR
STARTCHAR Tcommaaccent
ENCODING 354
SWIDTH 471 0
DWIDTH 6 0
BBX 7 12 1 -3
BITMAP
BBA4
8700
0A00
0D00
1C00
2800
3400
7000
9000
4000
9000
8000
ENDCHAR
STARTCHAR tcommaaccent
ENCODING 355
SWIDTH 358 0
DWIDTH 4 0
BBX 5 11 0 -3
BITMAP
0500
0900
2E40
2800
3400
7000
7100
3D00
1000
7000
9000
ENDCHAR
STARTCHAR Tcaron
ENCODING 356
SWIDTH 471 0
DWIDTH 6 0
BBX 7 12 1 0
BITMAP
0104
02A8
0040
BBA4
8700
0A00
0D00
1C00
2800
3400
7000
9000
ENDCHAR
STARTCHAR tcaron
ENCODING 357
SWIDTH 497 0
DWIDTH 6 0
BBX 6 10 1 0
BITMAP
0030
0030
0490
1C00
7A00
7000
A000
9000
D400
B800
ENDCHAR
STARTCHAR Tbar
ENCODING 358
SWIDTH 471 0
DWIDTH 6 0
BBX 7 9 1 0
BITMAP
BBA4
8700
0A00
0D00
AE00
2800
3400
7000
9000
ENDCHAR
STARTCHAR tbar
ENCODING 359
SWIDTH 358 0
DWIDTH 4 0
BBX 5 8 0 0
BITMAP
0500
0900
2E40
2800
7A40
7000
7100
3D00
ENDCHAR
STARTCHAR Utilde
ENCODING 360
SWIDTH 624 0
DWIDTH 8 0
BBX 9 12 0 0
BITMAP
00A100
015900
000000
0B0340
070700
0E0E00
1C1C00
283800
34B800
A1B400
A27000
783800
ENDCHAR
STARTCHAR utilde
ENCODING 361
SWIDTH 553 0
DWIDTH 7 0
BBX 8 9 0 0
BITMAP
02D5
0564
0000
1C24
1C70
38A0
71D0
A6C0
74E0
ENDCHAR
STARTCHAR Umacron
ENCODING 362
SWIDTH 624 0
DWIDTH 8 0
BBX 9 11 0 0
BITMAP
00A900
000000
0B0340
070700
0E0E00
1C1C00
283800
34B800
A1B400
A27000
783800
ENDCHAR
STARTCHAR umacron
ENCODING 363
SWIDTH 553 0
DWIDTH 7 0
BBX 7 8 0 0
BITMAP
02A8
0000
1C24
1C70
38A0
71D0
A6C0
74E0
ENDCHAR
STARTCHAR Ubreve
ENCODING 364
SWIDTH 624 0
DWIDTH 8 0
BBX 9 12 0 0
BITMAP
004100
006900
000000
0B0340
070700
0E0E00
1C1C00
283800
34B800
A1B400
A27000
783800
ENDCHAR
STARTCHAR ubreve
ENCODING 365
SWIDTH 553 0
DWIDTH 7 0
BBX 7 9 0 0
BITMAP
0148
01A4
0000
1C24
1C70
38A0
71D0
A6C0
74E0
ENDCHAR
STARTCHAR Uring
ENCODING 366
SWIDTH 624 0
DWIDTH 8 0
BBX 9 12 0 0
BITMAP
002900
00AA00
009900
0B6B40
070700
0E0E00
1C1C00
283800
34B800
A1B400
A27000
783800
ENDCHAR
STARTCHAR uring
ENCODING 367
SWIDTH 553 0
DWIDTH 7 0
BBX 7 9 0 0
BITMAP
01B4
01A4
0000
1C24
1C70
38A0
71D0
A6C0
74E0
ENDCHAR
STARTCHAR Uhungarumlaut
ENCODING 368
SWIDTH 624 0
DWIDTH 8 0
BBX 9 12 0 0
BITMAP
002200
006600
004400
0B0340
070700
0E0E00
1C1C00
283800
34B800
A1B400
A27000
783800
ENDCHAR
STARTCHAR uhungarumlaut
ENCODING 369
SWIDTH 553 0
DWIDTH 7 0
BBX 7 10 0 0
BITMAP
0044
00CC
0268
0110
1C24
1C70
38A0
71D0
A6C0
74E0
ENDCHAR
STARTCHAR Uogonek
ENCODING 370
SWIDTH 684 0
DWIDTH 8 0
BBX 9 12 0 -3
BITMAP
074280
034340
070B00
0D0E00
1C2D00
287C00
34A800
726400
392D00
002400
006000
006400
ENDCHAR
STARTCHAR uogonek
ENCODING 371
SWIDTH 553 0
DWIDTH 7 0
BBX 7 9 0 -3
BITMAP
1C24
1C70
38A0
71D0
A6C0
74E0
0180
0240
0280
ENDCHAR
STARTCHAR Wcircumflex
ENCODING 372
SWIDTH 941 0
DWIDTH 11 0
BBX 11 12 1 0
BITMAP
000100
001B40
001140
A80028
0D042C
2C2C2C
34B428
72F034
A6A070
D890D0
E49240
A07900
ENDCHAR
STARTCHAR wcircumflex
ENCODING 373
SWIDTH 750 0
DWIDTH 9 0
BBX 9 9 0 0
BITMAP
001C00
00AD00
014500
2C1280
1CA180
24D180
32C240
69C500
74B400
ENDCHAR
STARTCHAR Ycircumflex
ENCODING 374
SWIDTH 580 0
DWIDTH 7 0
BBX 8 15 0 -3
BITMAP
0014
006C
0045
0B03
0707
0E0D
1C2C
2838
74B4
A1B0
A2A0
79C0
0240
0A00
2400
ENDCHAR
STARTCHAR ycircumflex
ENCODING 375
SWIDTH 549 0
DWIDTH 7 0
BBX 7 13 0 -4
BITMAP
0070
02B4
0514
1C24
1C74
28B0
75E0
A6D0
7580
0240
0600
1C00
1000
ENDCHAR
STARTCHAR Ydieresis
ENCODING 376
SWIDTH 580 0
DWIDTH 7 0
BBX 8 15 0 -3
BITMAP
0045
01DB
0000
0B03
0707
0E0D
1C2C
2838
74B4
A1B0
A2A0
79C0
0240
0A00
2400
ENDCHAR
STARTCHAR Zacute
ENCODING 377
SWIDTH 501 0
DWIDTH 6 0
BBX 7 12 0 0
BITMAP
0014
0034
0050
1AAC
0038
00F0
0280
0A00
2800
6000
EA90
E060
ENDCHAR
STARTCHAR zacute
ENCODING 378
SWIDTH 430 0
DWIDTH 5 0
BBX 6 9 0 0
BITMAP
00A0
01D0
0100
1AD0
06C0
0B00
2800
B500
AA40
ENDCHAR
STARTCHAR Zdotaccent
ENCODING 379
SWIDTH 501 0
DWIDTH 6 0
BBX 7 12 0 0
BITMAP
0040
01D0
0000
1AAC
0038
00F0
02C0
0B00
2C00
7000
EBD0
E560
ENDCHAR
STARTCHAR zdotaccent
ENCODING 380
SWIDTH 430 0
DWIDTH 5 0
BBX 6 9 0 0
BITMAP
0380
0240
0000
1AD0
06C0
0B00
2800
B500
AA40
ENDCHAR
STARTCHAR Zcaron
ENCODING 381
SWIDTH 501 0
DWIDTH 6 0
BBX 7 12 0 0
BITMAP
0144
01E8
0040
1AAC
0038
00F0
0280
0A00
2800
6000
EA90
E060
ENDCHAR
STARTCHAR zcaron
ENCODING 382
SWIDTH 430 0
DWIDTH 5 0
BBX 7 9 0 0
BITMAP
0624
0790
0100
1AD0
06C0
0B00
2800
B500
AA40
ENDCHAR
STARTCHAR florin
ENCODING 402
SWIDTH 466 0
DWIDTH 6 0
BBX 9 13 -2 -3
BITMAP
000640
0018C0
003680
006100
02F800
01C000
01C000
028000
034000
030000
060000
CD0000
A80000
ENDCHAR
STARTCHAR AEacute
ENCODING 508
SWIDTH 878 0
DWIDTH 11 0
BBX 13 12 -1 0
BITMAP
00001400
00003400
00005000
000AEE00
0026D240
00A34700
01830900
07ABE000
090B4000
1C0D0400
340E6800
A007E000
ENDCHAR
STARTCHAR aeacute
ENCODING 509
SWIDTH 770 0
DWIDTH 9 0
BBX 9 10 0 0
BITMAP
000400
001C00
002400
005000
06AB80
2875C0
30A280
61EA00
A2D000
797A00
ENDCHAR
STARTCHAR Scommaaccent
ENCODING 536
SWIDTH 474 0
DWIDTH 6 0
BBX 7 12 0 -3
BITMAP
06A0
0D24
2828
28B0
1D00
0B00
1340
A340
7900
1400
2800
2000
ENDCHAR
STARTCHAR scommaaccent
ENCODING 537
SWIDTH 423 0
DWIDTH 5 0
BBX 5 9 0 -3
BITMAP
1A80
24C0
2800
0E00
9A00
B900
1000
3000
5000
ENDCHAR
STARTCHAR dotlessj
ENCODING 567
SWIDTH 277 0
DWIDTH 3 0
BBX 5 9 -2 -3
BITMAP
0280
0280
0280
0340
0700
0A00
1C00
2400
9000
ENDCHAR
STARTCHAR circumflex
ENCODING 710
SWIDTH 354 0
DWIDTH 4 0
BBX 4 3 0 7
BITMAP
01
1E
A3
ENDCHAR
STARTCHAR caron
ENCODING 711
SWIDTH 381 0
DWIDTH 5 0
BBX 5 3 0 6
BITMAP
6140
3900
1000
ENDCHAR
STARTCHAR breve
ENCODING 728
SWIDTH 344 0
DWIDTH 4 0
BBX 4 2 0 7
BITMAP
62
29
ENDCHAR
STARTCHAR dotaccent
ENCODING 729
SWIDTH 217 0
DWIDTH 3 0
BBX 2 2 1 7
BITMAP
D0
90
ENDCHAR
STARTCHAR ring
ENCODING 730
SWIDTH 402 0
DWIDTH 5 0
BBX 4 3 1 6
BITMAP
2A
66
29
ENDCHAR
STARTCHAR ogonek
ENCODING 731
SWIDTH 311 0
DWIDTH 4 0
BBX 3 4 0 -3
BITMAP
04
24
60
64
ENDCHAR
STARTCHAR tilde
ENCODING 732
SWIDTH 397 0
DWIDTH 5 0
BBX 6 2 0 7
BITMAP
2D50
5640
ENDCHAR
STARTCHAR hungarumlaut
ENCODING 733
SWIDTH 392 0
DWIDTH 5 0
BBX 5 3 0 7
BITMAP
1880
2680
6600
ENDCHAR
STARTCHAR pi
ENCODING 960
SWIDTH 640 0
DWIDTH 8 0
BBX 8 6 0 0
BITMAP
2BFE
0934
0C60
28A0
7090
D0B4
ENDCHAR
STARTCHAR uni1E02
ENCODING 7682
SWIDTH 551 0
DWIDTH 7 0
BBX 7 12 0 0
BITMAP
0050
00B0
0000
1AA4
190C
0E1C
1C74
3FD0
30A0
60A0
61D0
2A40
ENDCHAR
STARTCHAR uni1E03
ENCODING 7683
SWIDTH 525 0
DWIDTH 6 0
BBX 7 10 0 0
BITMAP
0600
0A38
0D24
1C00
2AD0
3CA0
74A0
60D0
62C0
2A00
ENDCHAR
STARTCHAR uni1E0A
ENCODING 7690
SWIDTH 630 0
DWIDTH 8 0
BBX 8 12 0 0
BITMAP
0010
0074
0000
1AA4
150D
0B0A
0D0A
2C0E
381C
7074
71D0
2A00
ENDCHAR
STARTCHAR uni1E0B
ENCODING 7691
SWIDTH 557 0
DWIDTH 7 0
BBX 8 10 0 0
BITMAP
0006
0B0D
061C
0028
06B4
1C70
34A0
70D0
72D0
39A4
ENDCHAR
STARTCHAR uni1E1E
ENCODING 7710
SWIDTH 518 0
DWIDTH 6 0
BBX 8 12 0 0
BITMAP
0010
0074
0000
2EFD
6280
0340
0700
1FA0
0D00
1C00
3400
6000
ENDCHAR
STARTCHAR uni1E1F
ENCODING 7711
SWIDTH 393 0
DWIDTH 5 0
BBX 7 13 0 -2
BITMAP
01D0
01E0
0364
0734
0A10
0D00
2E80
2800
2400
3400
7000
9000
8000
ENDCHAR
STARTCHAR uni1E40
ENCODING 7744
SWIDTH 931 0
DWIDTH 11 0
BBX 12 12 -1 0
BITMAP
000014
000038
000000
001A0B
006A2B
00DD6A
025C9D
03299C
093628
1C3A34
343C34
903429
ENDCHAR
STARTCHAR uni1E41
ENCODING 7745
SWIDTH 814 0
DWIDTH 10 0
BBX 10 9 0 0
BITMAP
002800
001400
000000
2CA2C0
1A39D0
287680
34E340
A1C700
918380
ENDCHAR
STARTCHAR uni1E56
ENCODING 7766
SWIDTH 553 0
DWIDTH 7 0
BBX 9 12 -1 0
BITMAP
000500
000E00
000000
02E900
0A0340
018340
028700
075D00
0BE400
0D0000
280000
600000
ENDCHAR
STARTCHAR uni1E57
ENCODING 7767
SWIDTH 550 0
DWIDTH 7 0
BBX 7 12 -1 -3
BITMAP
0070
0060
0000
0AB8
0B5C
0E1C
1C28
1C70
2A90
3000
6000
9000
ENDCHAR
STARTCHAR uni1E60
ENCODING 7776
SWIDTH 474 0
DWIDTH 6 0
BBX 7 12 0 0
BITMAP
0050
00A0
0000
06A0
0D24
2828
28B0
1D00
0B00
1340
A340
7900
ENDCHAR
STARTCHAR uni1E61
ENCODING 7777
SWIDTH 423 0
DWIDTH 5 0
BBX 5 9 0 0
BITMAP
02C0
0180
0000
1A80
24C0
2800
0E00
9A00
B900
ENDCHAR
STARTCHAR uni1E6A
ENCODING 7786
SWIDTH 430 0
DWIDTH 5 0
BBX 7 12 0 0
BITMAP
0050
00B0
0000
6AE8
5280
0340
0700
0A00
0D00
1C00
2800
6000
ENDCHAR
STARTCHAR uni1E6B
ENCODING 7787
SWIDTH 358 0
DWIDTH 4 0
BBX 4 9 1 0
BITMAP
0A
0D
28
BA
70
A0
D0
D4
B4
ENDCHAR
STARTCHAR Wgrave
ENCODING 7808
SWIDTH 941 0
DWIDTH 11 0
BBX 11 12 1 0
BITMAP
000400
001C00
000500
A80028
0D042C
2C2C2C
34B428
72F034
A6A070
D890D0
E49240
A07900
ENDCHAR
STARTCHAR wgrave
ENCODING 7809
SWIDTH 750 0
DWIDTH 9 0
BBX 9 9 0 0
BITMAP
006000
007000
001000
2C1280
1CA180
24D180
32C240
69C500
74B400
ENDCHAR
STARTCHAR Wacute
ENCODING 7810
SWIDTH 941 0
DWIDTH 11 0
BBX 11 12 1 0
BITMAP
000140
000340
000500
A80028
0D042C
2C2C2C
34B428
72F034
A6A070
D890D0
E49240
A07900
ENDCHAR
STARTCHAR wacute
ENCODING 7811
SWIDTH 750 0
DWIDTH 9 0
BBX 9 10 0 0
BITMAP
000400
001C00
003400
004000
2C1280
1CA180
24D180
32C240
69C500
74B400
ENDCHAR
STARTCHAR Wdieresis
ENCODING 7812
SWIDTH 941 0
DWIDTH 11 0
BBX 11 12 1 0
BITMAP
001040
0076C0
001000
A80028
0D042C
2C2C2C
34B428
72F034
A6A070
D890D0
E49240
A07900
ENDCHAR
STARTCHAR wdieresis
ENCODING 7813
SWIDTH 750 0
DWIDTH 9 0
BBX 9 9 0 0
BITMAP
01DB00
018500
000000
2C1280
1CA180
24D180
32C240
69C500
74B400
ENDCHAR
STARTCHAR Ygrave
ENCODING 7922
SWIDTH 580 0
DWIDTH 7 0
BBX 8 15 0 -3
BITMAP
0090
0070
0010
0B03
0707
0E0D
1C2C
2838
74B4
A1B0
A2A0
79C0
0240
0A00
2400
ENDCHAR
STARTCHAR ygrave
ENCODING 7923
SWIDTH 549 0
DWIDTH 7 0
BBX 7 13 0 -4
BITMAP
0180
0180
0040
1C24
1C74
28B0
75E0
A6D0
7580
0240
0600
1C00
1000
ENDCHAR
STARTCHAR endash
ENCODING 8211
SWIDTH 751 0
DWIDTH 9 0
BBX 7 1 1 3
BITMAP
AAA8
ENDCHAR
STARTCHAR emdash
ENCODING 8212
SWIDTH 1066 0
DWIDTH 13 0
BBX 11 1 1 3
BITMAP
AAAAA8
ENDCHAR
STARTCHAR quoteleft
ENCODING 8216
SWIDTH 268 0
DWIDTH 3 0
BBX 3 3 1 7
BITMAP
24
70
70
ENDCHAR
STARTCHAR quoteright
ENCODING 8217
SWIDTH 268 0
DWIDTH 3 0
BBX 2 3 2 7
BITMAP
A0
60
80
ENDCHAR
STARTCHAR quotesinglbase
ENCODING 8218
SWIDTH 268 0
DWIDTH 3 0
BBX 2 3 0 -1
BITMAP
70
30
90
ENDCHAR
STARTCHAR quotedblleft
ENCODING 8220
SWIDTH 485 0
DWIDTH 6 0
BBX 5 3 1 7
BITMAP
1880
3240
7240
ENDCHAR
STARTCHAR quotedblright
ENCODING 8221
SWIDTH 480 0
DWIDTH 6 0
BBX 5 3 2 7
BITMAP
7340
6300
8500
ENDCHAR
STARTCHAR quotedblbase
ENCODING 8222
SWIDTH 463 0
DWIDTH 6 0
BBX 5 3 0 -1
BITMAP
7340
3240
9600
ENDCHAR
STARTCHAR dagger
ENCODING 8224
SWIDTH 488 0
DWIDTH 6 0
BBX 5 9 1 0
BITMAP
0A00
0A00
6F80
1C00
2800
2400
3000
5000
8000
ENDCHAR
STARTCHAR daggerdbl
ENCODING 8225
SWIDTH 488 0
DWIDTH 6 0
BBX 5 9 1 0
BITMAP
0A00
0A00
6F80
1D00
2800
BE00
3000
6000
8000
ENDCHAR
STARTCHAR bullet
ENCODING 8226
SWIDTH 437 0
DWIDTH 5 0
BBX 3 3 1 2
BITMAP
78
BC
64
ENDCHAR
STARTCHAR ellipsis
ENCODING 8230
SWIDTH 810 0
DWIDTH 10 0
BBX 9 2 0 0
BITMAP
B1D380
618240
ENDCHAR
STARTCHAR perthousand
ENCODING 8240
SWIDTH 1184 0
DWIDTH 14 0
BBX 13 9 1 0
BITMAP
6D080000
D6240000
C9600000
A8D00000
02400000
06291A00
0CA77240
24DA6700
60682D00
ENDCHAR
STARTCHAR guilsinglleft
ENCODING 8249
SWIDTH 413 0
DWIDTH 5 0
BBX 4 5 1 1
BITMAP
09
74
D0
74
04
ENDCHAR
STARTCHAR guilsinglright
ENCODING 8250
SWIDTH 416 0
DWIDTH 5 0
BBX 3 4 1 2
BITMAP
60
28
1C
A0
ENDCHAR
STARTCHAR fraction
ENCODING 8260
SWIDTH 580 0
DWIDTH 7 0
BBX 7 10 0 0
BITMAP
0004
0024
0060
00D0
0280
0700
0900
1800
3000
5000
ENDCHAR
STARTCHAR Euro
ENCODING 8364
SWIDTH 622 0
DWIDTH 7 0
BBX 7 9 1 0
BITMAP
01A4
074C
0D28
2C24
BE40
BA00
7000
7440
1E80
ENDCHAR
STARTCHAR trademark
ENCODING 8482
SWIDTH 1084 0
DWIDTH 13 0
BBX 10 5 2 4
BITMAP
BE68A0
246AA0
309A90
319D90
221450
ENDCHAR
STARTCHAR Omega
ENCODING 8486
SWIDTH 839 0
DWIDTH 10 0
BBX 10 9 0 0
BITMAP
06A900
1D0740
2801C0
3401D0
3401D0
3801C0
1C0340
1A0600
7F5ED0
ENDCHAR
STARTCHAR partialdiff
ENCODING 8706
SWIDTH 580 0
DWIDTH 7 0
BBX 7 10 0 0
BITMAP
01A0
0358
0218
0698
1D38
3434
7070
A0E0
A2C0
3A00
ENDCHAR
STARTCHAR Delta
ENCODING 8710
SWIDTH 663 0
DWIDTH 8 0
BBX 8 7 0 0
BITMAP
02C0
02D0
0970
1834
2018
600D
AAAD
ENDCHAR
STARTCHAR product
ENCODING 8719
SWIDTH 667 0
DWIDTH 8 0
BBX 6 10 1 -1
BITMAP
AAB0
D030
D030
D030
D030
D030
D030
D030
D030
C030
ENDCHAR
STARTCHAR summation
ENCODING 8721
SWIDTH 677 0
DWIDTH 8 0
BBX 8 10 0 -1
BITMAP
2EA9
2D00
0E00
0780
02C0
0180
0700
1C00
3400
BFFC
ENDCHAR
STARTCHAR minus
ENCODING 8722
SWIDTH 617 0
DWIDTH 7 0
BBX 6 1 1 4
BITMAP
AA90
ENDCHAR
STARTCHAR radical
ENCODING 8730
SWIDTH 709 0
DWIDTH 9 0
BBX 10 11 0 0
BITMAP
000090
0001D0
000280
000700
000A00
281C00
6D2400
0D6000
0A9000
078000
070000
ENDCHAR
STARTCHAR infinity
ENCODING 8734
SWIDTH 681 0
DWIDTH 8 0
BBX 8 4 0 2
BITMAP
2EB9
62D6
2BAD
1414
ENDCHAR
STARTCHAR integral
ENCODING 8747
SWIDTH 583 0
DWIDTH 7 0
BBX 10 14 -1 -3
BITMAP
000790
001C90
0029C0
003400
007000
00A000
00D000
01C000
028000
034000
A70000
DA0000
A80000
100000
ENDCHAR
STARTCHAR approxequal
ENCODING 8776
SWIDTH 671 0
DWIDTH 8 0
BBX 7 6 1 1
BITMAP
2904
9B64
4190
7D10
9BA0
0140
ENDCHAR
STARTCHAR notequal
ENCODING 8800
SWIDTH 617 0
DWIDTH 7 0
BBX 6 8 1 0
BITMAP
0090
0280
AFA0
0900
AEA0
7400
9000
4000
ENDCHAR
STARTCHAR lessequal
ENCODING 8804
SWIDTH 704 0
DWIDTH 8 0
BBX 6 8 1 0
BITMAP
00A0
0740
7800
E000
1D00
0290
0010
BFD0
ENDCHAR
STARTCHAR greaterequal
ENCODING 8805
SWIDTH 617 0
DWIDTH 7 0
BBX 6 8 1 0
BITMAP
9000
2D00
0290
02D0
1E00
A000
0000
BFD0
ENDCHAR
STARTCHAR lozenge
ENCODING 9674
SWIDTH 580 0
DWIDTH 7 0
BBX 7 9 0 0
BITMAP
0700
0A80
18D0
3070
6024
3460
1890
0A80
0700
ENDCHAR
STARTCHAR commaaccent
ENCODING 63171
SWIDTH 250 0
DWIDTH 3 0
BBX 3 3 0 -3
BITMAP
10
34
60
ENDCHAR
STARTCHAR ff
ENCODING 64256
SWIDTH 773 0
DWIDTH 9 0
BBX 11 12 0 -2
BITMAP
01A064
0365CC
0736AC
0A1350
0D0700
6EAF90
680D00
241C00
342800
703400
A07000
805000
ENDCHAR
STARTCHAR fi
ENCODING 64257
SWIDTH 623 0
DWIDTH 7 0
BBX 8 12 0 -2
BITMAP
0069
0286
070A
0A05
1FAC
6C1C
2828
3430
7060
A074
D000
4000
ENDCHAR
STARTCHAR fl
ENCODING 64258
SWIDTH 637 0
DWIDTH 8 0
BBX 8 12 0 -2
BITMAP
0069
0287
0746
0A0A
0D0D
2E9C
2828
2434
3070
A038
D000
4000
ENDCHAR
STARTCHAR .notdef
ENCODING -1
SWIDTH 896 0
DWIDTH 11 0
BBX 12 11 0 0
BITMAP
00AAA9
02FFFE
03FFFD
078D6C
0B89F8
0FC7F8
1FCBF4
2F53F0
3DB5E0
3FFFD0
7FFFC0
ENDCHAR
ENDFONT
